<?xml version="1.0" encoding="UTF-8" standalone="no"?><!DOCTYPE svg PUBLIC "-//W3C//DTD SVG 1.1//EN" "http://www.w3.org/Graphics/SVG/1.1/DTD/svg11.dtd"><svg width="100%" height="100%" viewBox="0 0 123 123" version="1.1" xmlns="http://www.w3.org/2000/svg" xmlns:xlink="http://www.w3.org/1999/xlink" xml:space="preserve" xmlns:serif="http://www.serif.com/" style="fill-rule:evenodd;clip-rule:evenodd;stroke-linejoin:round;stroke-miterlimit:2;"><clipPath id="_clip1"><rect id="assicurazione.svg" x="0" y="0" width="122.299" height="122.299"/></clipPath><g clip-path="url(#_clip1)"><g><g><g><g><path d="M11.341,108.043l70.57,4.72c1.317,0.088 2.455,-0.908 2.543,-2.224l6.782,-101.402c0.088,-1.317 -0.908,-2.455 -2.224,-2.543l-70.57,-4.72c-1.317,-0.088 -2.455,0.908 -2.543,2.224l-6.782,101.402c-0.088,1.316 0.907,2.455 2.224,2.543Z" style="fill:#fae19e;fill-rule:nonzero;"/></g><g><g><g><g><g><path d="M4.18,120.43l54.017,0l19.1,-19.015l-0,-85.002c-0,-1.319 -1.07,-2.389 -2.389,-2.389l-70.728,0c-1.319,0 -2.389,1.07 -2.389,2.389l0,101.629c0,1.319 1.07,2.388 2.389,2.388Z" style="fill:#fff9e9;fill-rule:nonzero;"/></g><path d="M74.908,14.024l-9.554,0c1.319,0 2.388,1.07 2.388,2.389l0,85.003l-0.061,9.573l9.616,-9.573l-0,-85.003c-0,-1.319 -1.07,-2.389 -2.389,-2.389Z" style="fill:#fff4d6;fill-rule:nonzero;"/></g></g></g><path d="M58.197,120.43l0,-16.781c0,-1.319 1.069,-2.388 2.389,-2.388l16.711,-0l-19.1,19.169Z" style="fill:#ffeec2;fill-rule:nonzero;"/></g></g><g><path d="M111.941,59.377l-7.972,0.039l0,-12.14c0,-2.194 1.783,-3.98 3.983,-3.991l0.002,-0c2.201,-0.011 3.987,1.761 3.987,3.956l-0,12.136l-0,0Z" style="fill:#fed23a;fill-rule:nonzero;"/><path d="M107.957,120.43c-2.475,-2.455 -3.868,-5.795 -3.871,-9.281l-0.015,-17.67c0,-0.154 0.125,-0.279 0.28,-0.28l7.175,-0.036c0.154,-0 0.279,0.124 0.279,0.278l0.015,17.694c0.003,3.471 -1.373,6.801 -3.825,9.258l-0.038,0.037Z" style="fill:#54b1ff;fill-rule:nonzero;"/><path d="M107.957,112.107l-0.002,0c-3.448,0.017 -6.244,-2.757 -6.244,-6.195l-0,-51.004c-0,-1.619 1.308,-2.934 2.927,-2.942l6.599,-0.032c1.63,-0.009 2.957,1.311 2.957,2.941l-0,50.983c-0,3.435 -2.792,6.232 -6.237,6.249Z" style="fill:#fdf385;fill-rule:nonzero;"/><path d="M111.237,51.933l-5.678,0.028c1.442,0.189 2.558,1.419 2.558,2.914l0,50.983c0,2.346 -1.303,4.394 -3.226,5.463c0.905,0.505 1.95,0.792 3.063,0.786l0.003,0c3.445,-0.017 6.236,-2.814 6.236,-6.249l0,-50.983c0.001,-1.63 -1.326,-2.95 -2.956,-2.942Z" style="fill:#faee6e;fill-rule:nonzero;"/><path d="M117.348,59.221l-17.106,0.084c-1.745,0.009 -3.159,1.426 -3.159,3.165c-0,1.739 1.414,3.142 3.159,3.133l13.947,-0.069l-0,18.509c-0,1.739 1.414,3.142 3.159,3.133c1.745,-0.008 3.159,-1.425 3.159,-3.164l0,-21.658c0,-1.739 -1.414,-3.142 -3.159,-3.133Z" style="fill:#54b1ff;fill-rule:nonzero;"/><g><path d="M117.348,59.221l-9.182,0.044l-0.04,6.285l6.063,-0.016l-0,18.51c-0,1.739 1.414,3.141 3.159,3.133c1.745,-0.009 3.159,-1.426 3.159,-3.165l0,-21.658c0,-1.739 -1.414,-3.142 -3.159,-3.133Z" style="fill:#3da7ff;fill-rule:nonzero;"/></g></g></g><g><path d="M89.132,4.806l-70.571,-4.72c-2.3,-0.152 -4.295,1.592 -4.449,3.892l-0.552,8.255l-9.38,-0c-2.305,-0 -4.18,1.875 -4.18,4.18l-0,101.629c-0,2.304 1.875,4.18 4.18,4.18l54.017,-0c0.468,-0 0.932,-0.192 1.264,-0.522l8.155,-8.119c0.083,0.018 0.167,0.032 0.254,0.038l13.922,0.931c2.222,0.147 4.3,-1.661 4.449,-3.892l6.783,-101.402c0.152,-2.275 -1.617,-4.297 -3.892,-4.45Zm-29.143,111.288l-0,-12.445c-0,-0.329 0.268,-0.597 0.597,-0.597l12.397,0l-12.994,13.042Zm22.677,-5.675c-0.058,0.361 -0.27,0.546 -0.635,0.556l-11.055,-0.739l7.585,-7.551c0.337,-0.336 0.527,-0.793 0.527,-1.27l0,-85.002c0,-2.305 -1.875,-4.18 -4.18,-4.18l-18.63,-0c-2.316,-0 -2.316,3.583 0,3.583l18.63,-0c0.33,-0 0.597,0.268 0.597,0.597l0,83.056l-14.919,0c-2.305,0 -4.18,1.875 -4.18,4.18l-0,14.99l-52.226,-0c-0.329,-0 -0.597,-0.268 -0.597,-0.597l-0,-101.629c-0,-0.329 0.268,-0.597 0.597,-0.597l42.558,-0c2.316,-0 2.316,-3.583 0,-3.583l-29.588,-0l0.537,-8.016c0.058,-0.361 0.27,-0.546 0.635,-0.555l70.57,4.72c0.361,0.058 0.547,0.27 0.556,0.635l-6.782,101.402Z" style="fill:#060606;fill-rule:nonzero;"/><path d="M63.974,56.622l-48.86,0c-0.989,0 -1.792,0.802 -1.792,1.792c0,0.989 0.803,1.791 1.792,1.791l48.86,0c0.99,0 1.792,-0.802 1.792,-1.791c-0,-0.99 -0.802,-1.792 -1.792,-1.792Z" style="fill:#060606;fill-rule:nonzero;"/><path d="M63.974,69.111l-48.86,0c-0.989,0 -1.792,0.802 -1.792,1.792c0,0.989 0.803,1.791 1.792,1.791l48.86,0c0.99,0 1.792,-0.802 1.792,-1.791c-0,-0.99 -0.802,-1.792 -1.792,-1.792Z" style="fill:#060606;fill-rule:nonzero;"/><path d="M13.322,45.925c0,0.989 0.803,1.791 1.792,1.791l48.86,0c0.99,0 1.792,-0.802 1.792,-1.791c-0,-0.99 -0.802,-1.792 -1.792,-1.792l-48.86,0c-0.989,0 -1.792,0.802 -1.792,1.792Z" style="fill:#060606;fill-rule:nonzero;"/><path d="M21.929,33.436c0,0.989 0.803,1.791 1.792,1.791l31.646,0c0.99,0 1.792,-0.802 1.792,-1.791c-0,-0.99 -0.802,-1.792 -1.792,-1.792l-31.646,0c-0.989,0 -1.792,0.802 -1.792,1.792Z" style="fill:#060606;fill-rule:nonzero;"/><path d="M46.52,104.811c-3.222,0.008 -6.444,0.015 -9.666,0.02c-1.083,0.002 -2.166,0.003 -3.249,0.004c-1.962,0.002 -3.284,-0.392 -3.723,-2.551c-0.372,-1.825 -2.954,-1.579 -3.455,0c-1.24,3.903 -3.291,2.374 -4.439,-0.251c-1.146,-2.619 -1.44,-5.55 -1.94,-8.337c-0.368,-2.047 -3.465,-1.473 -3.519,0.477c-0.071,2.568 -0.311,5.095 -0.963,7.586c-0.672,2.569 -1.68,5.039 -2.68,7.494c-0.873,2.141 2.595,3.061 3.455,0.953c0.886,-2.176 1.774,-4.363 2.434,-6.62c1.228,2.952 3.768,6.292 7.388,4.324c0.673,-0.367 1.302,-0.887 1.854,-1.494c1.882,2.175 4.684,2.004 7.305,2c3.733,-0.004 7.466,-0.012 11.199,-0.022c2.304,-0.006 2.309,-3.589 -0.001,-3.583Z" style="fill:#060606;fill-rule:nonzero;"/><path d="M120.849,58.866c-0.93,-0.927 -2.21,-1.402 -3.51,-1.437l-1.354,0.007l0,-2.561c0,-1.559 -0.926,-3.207 -2.253,-4.027l0,-3.607c0,-7.421 -11.554,-7.389 -11.554,0.035l-0,3.607c-1.352,0.836 -2.259,2.327 -2.259,4.025l0,2.624c-5.963,0.406 -5.98,9.493 0.007,9.848c0.038,8.02 0.036,15.909 -0.007,24.063c-0.011,2.249 3.571,2.38 3.583,0.019c0.043,-8.161 0.045,-16.057 0.007,-24.083l8.889,-0.044c-0,-0 -0.012,26.477 -0.012,38.405c0,5.814 -8.89,5.852 -8.89,-0.06l0.003,-3.267c0.14,-2.312 -3.437,-2.528 -3.577,-0.216l0,3.065c0,2.628 0.813,4.853 2.386,6.419c0.14,3.748 1.72,7.375 4.388,10.021c0.765,0.76 1.825,0.528 2.566,-0.043c2.715,-2.72 4.245,-6.305 4.34,-10.131c1.183,-1.178 2.367,-2.364 2.367,-6.425l0.001,-16.326c3.098,0.881 6.329,-1.517 6.329,-4.765l-0,-21.658c-0,-1.319 -0.515,-2.558 -1.45,-3.488Zm-17.347,-1.368l0,-2.59c0,-0.53 0.364,-0.974 0.854,-1.107l7.172,-0.035c0.2,0.05 0.385,0.144 0.535,0.294c0.219,0.217 0.339,0.507 0.339,0.815l0,2.579l-8.9,0.044Zm4.46,-12.421c1.1,-0 2.187,1.078 2.187,2.164l-0,2.906l-4.388,0.022l-0,-2.893c-0,-1.207 0.987,-2.193 2.201,-2.199Zm-0.003,72.591c-0.832,-1.181 -1.435,-2.516 -1.771,-3.919c0.554,0.12 1.116,0.183 1.678,0.183c0.628,-0 1.255,-0.078 1.873,-0.229c-0.328,1.425 -0.93,2.768 -1.78,3.965Zm10.757,-33.656c-0,1.696 -2.736,1.83 -2.736,0.031c0,0 0.003,-16.953 0.005,-18.507c0.002,-1.002 -0.832,-1.793 -1.805,-1.793l-13.947,0.069c-1.73,-0 -1.69,-2.707 0.018,-2.715l17.106,-0.085c0.827,0.071 1.28,0.518 1.359,1.342l-0,21.658l-0,0Z" style="fill:#060606;fill-rule:nonzero;"/></g></g></g></svg>