<?xml version="1.0" encoding="UTF-8" standalone="no"?><!DOCTYPE svg PUBLIC "-//W3C//DTD SVG 1.1//EN" "http://www.w3.org/Graphics/SVG/1.1/DTD/svg11.dtd"><svg width="100%" height="100%" viewBox="0 0 683 683" version="1.1" xmlns="http://www.w3.org/2000/svg" xmlns:xlink="http://www.w3.org/1999/xlink" xml:space="preserve" xmlns:serif="http://www.serif.com/" style="fill-rule:evenodd;clip-rule:evenodd;stroke-linejoin:round;stroke-miterlimit:2;"><g><g><g><path d="M671.755,314.809l-246.535,-246.54c-7.037,-7.038 -16.417,-10.9 -26.418,-10.9c-10.013,-0 -19.387,3.868 -26.424,10.9l-22.384,22.389c-7.032,7.026 -10.906,16.412 -10.906,26.418c0,10.002 3.874,19.703 10.906,26.73l143.825,144.141l-456.939,0c-20.602,0 -36.88,16.129 -36.88,36.736l-0,31.652c-0,20.608 16.278,38.362 36.88,38.362l458.571,0l-145.451,144.947c-7.032,7.037 -10.906,16.167 -10.906,26.174c-0,9.996 3.874,19.259 10.906,26.291l22.383,22.317c7.038,7.037 16.412,10.872 26.424,10.872c10.002,0 19.381,-3.885 26.419,-10.922l246.535,-246.535c7.054,-7.06 10.933,-16.484 10.906,-26.502c0.022,-10.051 -3.852,-19.481 -10.912,-26.53Z" style="fill-rule:nonzero;"/></g></g></g></svg>