<?xml version="1.0" encoding="UTF-8" standalone="no"?><!DOCTYPE svg PUBLIC "-//W3C//DTD SVG 1.1//EN" "http://www.w3.org/Graphics/SVG/1.1/DTD/svg11.dtd"><svg width="100%" height="100%" viewBox="0 0 1720 1720" version="1.1" xmlns="http://www.w3.org/2000/svg" xmlns:xlink="http://www.w3.org/1999/xlink" xml:space="preserve" xmlns:serif="http://www.serif.com/" style="fill-rule:evenodd;clip-rule:evenodd;stroke-linejoin:round;stroke-miterlimit:2;"><g><g><path d="M1686.33,345.6l-113.333,0l0,-38.667c0.608,-15.304 -9.292,-29.058 -24,-33.333c-78.45,-20.558 -159.233,-30.867 -240.333,-30.667c-133.334,0 -315,30 -449.334,166.667c-133.333,-138 -316.333,-166.667 -449.333,-166.667c-81.1,-0.2 -161.883,10.109 -240.333,30.667c-14.709,4.275 -24.609,18.029 -24,33.333l-0,38.334l-112.334,-0c-18.408,-0 -33.333,14.925 -33.333,33.333l0,1064.67c0,18.408 14.925,33.333 33.333,33.333c5.725,-0.017 11.35,-1.508 16.334,-4.333c3.333,-1.667 336.666,-184 802,-66.667l8,0c2.658,0.321 5.341,0.321 8,0c466.666,-118.333 800,63.667 802,66.667c10.312,5.954 23.02,5.954 33.333,-0c10.25,-5.917 16.596,-16.829 16.667,-28.667l-0,-1064.67c-0,-18.408 -14.921,-33.333 -33.334,-33.333Zm-1619.67,1044.67l-0,-978l79.666,-0l0,836c-0.208,18.408 14.546,33.5 32.955,33.708c1.8,0.021 3.6,-0.104 5.379,-0.375c68.958,-10.529 138.579,-16.1 208.333,-16.667c96.625,-1.675 192.846,12.859 284.667,43c-207.354,-25.075 -417.679,3.267 -611,82.334Zm326.333,-191.667c-60.629,0.138 -121.188,4.033 -181.333,11.667l-0,-877c64.9,-14.459 131.175,-21.838 197.666,-22c124.667,-0 296.667,28.666 416,163.333l1,830.333c-69.333,-45.333 -204.666,-106.333 -433.333,-106.333Zm500,-724c119.333,-133.333 291.333,-163.333 416,-163.333c66.487,0.196 132.763,7.571 197.667,22l-0,877c-59.809,-7.704 -120.034,-11.713 -180.334,-12c-227.333,-0 -363,61 -433.333,106.333l0,-830Zm759.667,915.667c-193.734,-79.284 -404.542,-107.629 -612.334,-82.334c92.255,-30.25 188.934,-44.787 286,-43c70.192,0.392 140.263,5.85 209.667,16.334c18.2,2.762 35.196,-9.754 37.958,-27.954c0.271,-1.78 0.396,-3.58 0.375,-5.38l0,-835.666l79.667,-0l-1.333,978Z" style="fill:#fff;fill-rule:nonzero;"/></g></g></svg>