<?xml version="1.0" encoding="UTF-8" standalone="no"?><!DOCTYPE svg PUBLIC "-//W3C//DTD SVG 1.1//EN" "http://www.w3.org/Graphics/SVG/1.1/DTD/svg11.dtd"><svg width="100%" height="100%" viewBox="0 0 146 146" version="1.1" xmlns="http://www.w3.org/2000/svg" xmlns:xlink="http://www.w3.org/1999/xlink" xml:space="preserve" xmlns:serif="http://www.serif.com/" style="fill-rule:evenodd;clip-rule:evenodd;stroke-linejoin:round;stroke-miterlimit:2;"><g><path d="M90.177,62.835c-0.468,-0.584 -5.957,-0 -6.658,-0l-43.683,-0c-2.103,-0 -5.723,0.7 -7.592,-0c0.934,-2.92 3.971,-4.556 6.657,-5.84c7.592,-3.621 15.535,-6.658 23.711,-8.877c11.68,-3.271 18.805,2.336 26.28,12.965l1.285,1.752Z" style="fill:#f5e169;fill-rule:nonzero;"/><path d="M85.855,61.316c-6.541,-9.227 -12.731,-14.133 -22.893,-11.329c-1.752,0.467 -3.504,1.051 -5.256,1.635c-1.051,0.35 -1.752,1.285 -1.752,2.336l-0.35,6.073c-0.117,1.519 1.168,2.804 2.686,2.804l23.01,-0c0.584,-0 5.489,-0.468 5.84,-0l-1.285,-1.519Z" style="fill:#333;fill-rule:nonzero;"/><path d="M42.289,57.812c-1.869,0.935 -3.972,1.986 -5.14,3.621c-0.467,0.701 0,1.635 0.818,1.635c1.635,0.117 3.621,-0.233 5.022,-0.233l9.344,-0c0.584,-0 1.052,-0.468 1.052,-1.052l0.467,-7.358c-0,-0.818 -0.701,-1.285 -1.402,-1.051c-3.504,1.401 -6.891,2.803 -10.161,4.438Z" style="fill:#333;fill-rule:nonzero;"/><path d="M117.508,70.543c-2.687,-4.088 -6.891,-7.241 -11.447,-8.876c-1.401,-0.468 -2.92,-0.935 -4.438,-1.052c-13.782,-0.7 -27.915,0 -41.698,0l-26.864,0c-3.504,0 -6.54,2.57 -7.124,5.957c-0,0.117 -0.117,0.234 -0.117,0.351l-0.584,4.438l-0.935,3.971c0,2.57 2.103,4.672 4.672,4.672l57.349,0c6.541,0 13.082,0.234 19.623,0c0.7,0 1.401,0 2.102,-0.117c1.285,0 2.57,-0.116 3.738,-0.116c2.452,-0.117 7.592,-0.117 7.942,-3.504c0.117,-1.052 -0.234,-2.103 -0.701,-3.037c-0.467,-0.935 -0.934,-1.869 -1.518,-2.687Z" style="fill:#f5e169;fill-rule:nonzero;"/><path d="M29.674,66.572l-3.737,0c-0.234,0 -0.351,0.117 -0.351,0.351l-0.467,3.854c-0,0.234 0.117,0.584 0.35,0.584l4.205,-0c1.051,-0 1.869,-0.934 1.869,-2.102l-0,-0.584c-0.117,-1.168 -0.934,-2.103 -1.869,-2.103Z" style="fill:#e15b64;fill-rule:nonzero;"/><path d="M115.756,66.923c-0.234,-0.234 -0.584,-0.468 -0.935,-0.468l-3.504,0c-0.934,0 -1.635,0.584 -1.635,1.285l0,1.752c0,0.935 0.935,1.869 2.103,1.869l5.84,-0c0.7,-0 0.817,-0.584 0.467,-1.168l-2.336,-3.27Z" style="fill:#e0e0e0;fill-rule:nonzero;"/><path d="M118.559,74.865l-94.258,-0c0,-0 -0.467,-0 -0.467,0.467c0,2.803 1.986,4.672 4.789,4.672l89.936,0c1.402,0 2.57,-1.168 2.57,-2.569c-0,-1.402 -1.168,-2.57 -2.57,-2.57Z" style="fill:#f8b26a;fill-rule:nonzero;"/><g><circle cx="42.639" cy="74.164" r="8.526" style="fill:#fff;"/><path d="M42.639,67.273c3.738,-0 6.774,3.037 6.774,6.774c0,3.738 -3.036,6.892 -6.774,6.892c-3.738,-0 -6.774,-3.037 -6.774,-6.775c-0,-3.737 3.036,-6.891 6.774,-6.891m-0,-3.504c-5.723,-0 -10.278,4.555 -10.278,10.278c-0,5.724 4.555,10.279 10.278,10.279c5.723,-0 10.278,-4.555 10.278,-10.279c0,-5.723 -4.672,-10.278 -10.278,-10.278Z" style="fill:#333;fill-rule:nonzero;"/></g><g><circle cx="42.639" cy="74.164" r="4.672" style="fill:#e6e6e6;"/></g><g><circle cx="97.068" cy="74.164" r="8.526" style="fill:#fff;"/><path d="M97.068,67.273c3.737,-0 6.774,3.037 6.774,6.774c0,3.738 -3.037,6.892 -6.774,6.892c-3.738,-0 -6.775,-3.037 -6.775,-6.775c0,-3.737 3.037,-6.891 6.775,-6.891m-0,-3.504c-5.723,-0 -10.279,4.555 -10.279,10.278c0,5.724 4.556,10.279 10.279,10.279c5.723,-0 10.278,-4.555 10.278,-10.279c0,-5.723 -4.555,-10.278 -10.278,-10.278Z" style="fill:#333;fill-rule:nonzero;"/></g><g><circle cx="97.068" cy="74.164" r="4.672" style="fill:#e6e6e6;"/></g><path d="M82.117,72.646l-21.14,-0c-0.935,-0 -1.752,-0.818 -1.752,-1.752c-0,-0.935 0.817,-1.752 1.752,-1.752l21.024,-0c0.934,-0 1.752,0.817 1.752,1.752c0.116,0.934 -0.701,1.752 -1.636,1.752Z" style="fill:#f8b26a;fill-rule:nonzero;"/><path d="M32.945,57.579l-8.41,-0.818c-1.285,-0.117 -2.336,-1.168 -2.453,-2.57l-0.117,-1.752c-0.116,-1.168 1.052,-2.102 2.22,-1.752l11.913,3.855c0,1.752 -1.518,3.153 -3.153,3.037Z" style="fill:#f5e169;fill-rule:nonzero;"/><path d="M34.93,61.316l-3.387,2.92l-5.723,-9.461l2.219,-1.868l6.891,8.409Z" style="fill:#f5e169;fill-rule:nonzero;"/></g></svg>