<?xml version="1.0" encoding="UTF-8" standalone="no"?><!DOCTYPE svg PUBLIC "-//W3C//DTD SVG 1.1//EN" "http://www.w3.org/Graphics/SVG/1.1/DTD/svg11.dtd"><svg width="100%" height="100%" viewBox="0 0 122 108" version="1.1" xmlns="http://www.w3.org/2000/svg" xmlns:xlink="http://www.w3.org/1999/xlink" xml:space="preserve" xmlns:serif="http://www.serif.com/" style="fill-rule:evenodd;clip-rule:evenodd;stroke-linecap:round;stroke-linejoin:round;stroke-miterlimit:2;"><clipPath id="_clip1"><rect id="dare-precedenza.svg" serif:id="dare precedenza.svg" x="0" y="0" width="121.528" height="107.09"/></clipPath><g clip-path="url(#_clip1)"><path id="path3084" d="M66.291,103.822c-1.083,1.876 -3.202,3.049 -5.527,3.049c-2.367,0 -4.487,-1.238 -5.591,-3.149l-54.007,-93.552c-1.159,-2.007 -1.33,-4.536 -0.091,-6.684c1.184,-2.05 3.316,-3.267 5.523,-3.267l108.332,-0c2.207,-0 4.339,1.217 5.523,3.267c1.24,2.148 1.068,4.677 -0.091,6.684l-54.071,93.652Z" style="fill:#fff;fill-rule:nonzero;stroke:#000;stroke-width:0.44px;"/><path id="path3092" d="M60.766,104.685c1.589,-0 2.97,-0.809 3.633,-1.958l54.069,-93.65c0.809,-1.401 0.916,-3.07 0.091,-4.499c-0.802,-1.39 -2.225,-2.172 -3.628,-2.172l-108.335,0c-1.404,0 -2.826,0.782 -3.629,2.172c-0.825,1.429 -0.717,3.098 0.091,4.499l54.006,93.55c0.702,1.216 2.096,2.058 3.702,2.058Z" style="fill:#d40000;fill-rule:nonzero;"/><path id="path3102" d="M60.761,85.716l41.37,-71.653l-82.736,-0l41.366,71.653Z" style="fill:#fff;fill-rule:nonzero;"/></g></svg>