<?xml version="1.0" encoding="UTF-8" standalone="no"?><!DOCTYPE svg PUBLIC "-//W3C//DTD SVG 1.1//EN" "http://www.w3.org/Graphics/SVG/1.1/DTD/svg11.dtd"><svg width="100%" height="100%" viewBox="0 0 13 14" version="1.1" xmlns="http://www.w3.org/2000/svg" xmlns:xlink="http://www.w3.org/1999/xlink" xml:space="preserve" xmlns:serif="http://www.serif.com/" style="fill-rule:evenodd;clip-rule:evenodd;stroke-linejoin:round;stroke-miterlimit:2;"><clipPath id="_clip1"><rect id="instagram.svg" x="0" y="0" width="12.091" height="13.818"/></clipPath><g clip-path="url(#_clip1)"><path d="M6.048,3.805c-1.716,0 -3.101,1.385 -3.101,3.101c0,1.717 1.385,3.101 3.101,3.101c1.717,0 3.101,-1.384 3.101,-3.101c0,-1.716 -1.384,-3.101 -3.101,-3.101Zm0,5.117c-1.109,0 -2.016,-0.904 -2.016,-2.016c0,-1.112 0.904,-2.016 2.016,-2.016c1.112,0 2.016,0.904 2.016,2.016c0,1.112 -0.907,2.016 -2.016,2.016Zm3.951,-5.243c0,0.402 -0.324,0.723 -0.723,0.723c-0.402,-0 -0.723,-0.324 -0.723,-0.723c-0,-0.4 0.324,-0.724 0.723,-0.724c0.399,0 0.723,0.324 0.723,0.724Zm2.054,0.734c-0.046,-0.969 -0.267,-1.827 -0.977,-2.535c-0.707,-0.707 -1.565,-0.928 -2.534,-0.977c-0.999,-0.056 -3.992,-0.056 -4.99,0c-0.966,0.046 -1.825,0.268 -2.535,0.975c-0.709,0.707 -0.928,1.565 -0.977,2.534c-0.056,0.999 -0.056,3.992 0,4.99c0.046,0.969 0.268,1.827 0.977,2.534c0.71,0.708 1.566,0.929 2.535,0.977c0.998,0.057 3.991,0.057 4.99,0c0.969,-0.045 1.827,-0.267 2.534,-0.977c0.707,-0.707 0.929,-1.565 0.977,-2.534c0.057,-0.998 0.057,-3.989 0,-4.987Zm-1.29,6.059c-0.21,0.529 -0.618,0.936 -1.15,1.149c-0.796,0.316 -2.685,0.243 -3.565,0.243c-0.88,0 -2.772,0.07 -3.565,-0.243c-0.529,-0.21 -0.937,-0.618 -1.15,-1.149c-0.316,-0.797 -0.243,-2.686 -0.243,-3.566c0,-0.879 -0.07,-2.771 0.243,-3.565c0.211,-0.529 0.618,-0.936 1.15,-1.15c0.796,-0.315 2.685,-0.242 3.565,-0.242c0.88,-0 2.772,-0.071 3.565,0.242c0.529,0.211 0.937,0.619 1.15,1.15c0.316,0.796 0.243,2.686 0.243,3.565c0,0.88 0.073,2.772 -0.243,3.566Z" style="fill:#fff;fill-rule:nonzero;"/></g></svg>