<?xml version="1.0" encoding="UTF-8" standalone="no"?><!DOCTYPE svg PUBLIC "-//W3C//DTD SVG 1.1//EN" "http://www.w3.org/Graphics/SVG/1.1/DTD/svg11.dtd"><svg width="100%" height="100%" viewBox="0 0 1024 1024" version="1.1" xmlns="http://www.w3.org/2000/svg" xmlns:xlink="http://www.w3.org/1999/xlink" xml:space="preserve" xmlns:serif="http://www.serif.com/" style="fill-rule:evenodd;clip-rule:evenodd;stroke-linejoin:round;stroke-miterlimit:2;"><g><g><path d="M1023.39,211.752l-359.972,299.75l360.582,239.974l0,-532.968c0,-2.304 -0.238,-4.552 -0.61,-6.756Z" style="fill:#fff;fill-rule:nonzero;"/></g></g><g><g><path d="M630.96,538.528l-45.378,37.786c-21.318,17.752 -47.45,26.628 -73.58,26.628c-26.13,0 -52.264,-8.876 -73.58,-26.628l-45.378,-37.786l-393.044,261.578l0,5.388c0,22.322 18.162,40.484 40.484,40.484l943.03,0c22.322,0 40.484,-18.162 40.484,-40.484l0,-5.388l-393.038,-261.578Z" style="fill:#fff;fill-rule:nonzero;"/></g></g><g><g><path d="M983.664,178.024l-943.328,0c-5.716,0.022 -8.19,7.304 -3.798,10.962l370.562,308.568c0.044,0.036 0.088,0.074 0.132,0.11l57.094,47.542c27.624,23.004 67.726,23.004 95.35,0l427.786,-356.22c4.392,-3.66 1.916,-10.942 -3.798,-10.962Z" style="fill:#fff;fill-rule:nonzero;"/></g></g><g><g><path d="M0.61,211.752c-0.372,2.204 -0.61,4.448 -0.61,6.756l0,532.968l360.582,-239.976l-359.972,-299.748Z" style="fill:#fff;fill-rule:nonzero;"/></g></g></svg>