<?xml version="1.0" encoding="UTF-8" standalone="no"?><!DOCTYPE svg PUBLIC "-//W3C//DTD SVG 1.1//EN" "http://www.w3.org/Graphics/SVG/1.1/DTD/svg11.dtd"><svg width="100%" height="100%" viewBox="0 0 11 11" version="1.1" xmlns="http://www.w3.org/2000/svg" xmlns:xlink="http://www.w3.org/1999/xlink" xml:space="preserve" xmlns:serif="http://www.serif.com/" style="fill-rule:evenodd;clip-rule:evenodd;stroke-linejoin:round;stroke-miterlimit:2;"><g><g><path d="M10.125,2.095l-3.561,2.966l3.567,2.374l0,-5.273c0,-0.023 -0.002,-0.045 -0.006,-0.067Z" style="fill:#fff;fill-rule:nonzero;"/></g></g><g><g><path d="M6.243,5.328l-0.449,0.374c-0.211,0.176 -0.47,0.263 -0.728,0.263c-0.259,0 -0.517,-0.087 -0.728,-0.263l-0.449,-0.374l-3.889,2.588l-0,0.053c-0,0.221 0.18,0.401 0.401,0.401l9.33,-0c0.22,-0 0.4,-0.18 0.4,-0.401l0,-0.053l-3.888,-2.588Z" style="fill:#fff;fill-rule:nonzero;"/></g></g><g><g><path d="M9.732,1.761l-9.333,0c-0.056,0.001 -0.081,0.073 -0.038,0.109l3.667,3.053c0,0 0.001,0 0.001,0.001l0.565,0.47c0.273,0.228 0.67,0.228 0.943,0l4.233,-3.524c0.043,-0.036 0.019,-0.108 -0.038,-0.109Z" style="fill:#fff;fill-rule:nonzero;"/></g></g><g><g><path d="M0.006,2.095c-0.004,0.022 -0.006,0.044 -0.006,0.067l0,5.273l3.567,-2.374l-3.561,-2.966Z" style="fill:#fff;fill-rule:nonzero;"/></g></g></svg>