<?xml version="1.0" encoding="UTF-8" standalone="no"?><!DOCTYPE svg PUBLIC "-//W3C//DTD SVG 1.1//EN" "http://www.w3.org/Graphics/SVG/1.1/DTD/svg11.dtd"><svg width="100%" height="100%" viewBox="0 0 34 34" version="1.1" xmlns="http://www.w3.org/2000/svg" xmlns:xlink="http://www.w3.org/1999/xlink" xml:space="preserve" xmlns:serif="http://www.serif.com/" style="fill-rule:evenodd;clip-rule:evenodd;stroke-linecap:round;stroke-linejoin:round;stroke-miterlimit:1.5;"><g><circle cx="16.915" cy="16.915" r="16.294" style="fill:#00408b;stroke:#fff;stroke-width:1.24px;"/><path id="path2001" d="M11.254,10.09c-0.876,0.075 -1.425,0.635 -1.726,1.42l-1.406,3.725l1.133,-0.078l1.235,-3.264c0.113,-0.275 0.415,-0.543 0.764,-0.582c3.257,-0.446 7.61,-0.471 11.33,-0c0.349,0.039 0.644,0.307 0.757,0.582l1.235,3.264l1.132,0.078l-1.405,-3.725c-0.302,-0.785 -0.853,-1.329 -1.719,-1.42c-3.264,-0.342 -7.708,-0.309 -11.33,0Zm5.661,4.769c-2.575,0.013 -5.146,0.252 -7.701,0.575c-1.067,0.156 -1.768,0.396 -2.149,1.043c-0.742,1.26 -0.313,3.272 1.494,3.272l16.713,-0c1.806,-0 2.236,-2.012 1.494,-3.272c-0.381,-0.647 -1.082,-0.803 -2.149,-0.958c-2.558,-0.291 -5.125,-0.672 -7.702,-0.66Zm-7.906,1.441c0.739,-0 1.337,0.621 1.337,1.391c0,0.769 -0.598,1.398 -1.337,1.398c-0.739,-0 -1.344,-0.629 -1.344,-1.398c0,-0.77 0.605,-1.391 1.344,-1.391Zm15.819,-0c0.739,-0 1.337,0.621 1.337,1.391c0,0.769 -0.598,1.398 -1.337,1.398c-0.739,-0 -1.344,-0.629 -1.344,-1.398c0,-0.77 0.605,-1.391 1.344,-1.391Zm-17.763,3.768c-0.188,-0 -0.341,0.152 -0.341,0.348l0,0.468c0,0.196 0.153,0.362 0.341,0.362l0.655,-0l-0,2.193c-0,0.3 0.237,0.546 0.525,0.546l1.999,0c0.288,0 0.525,-0.246 0.525,-0.546l0,-2.193l12.299,-0l0,2.193c0,0.3 0.23,0.546 0.519,0.546l1.998,0c0.289,0 0.526,-0.246 0.526,-0.546l-0,-2.193l0.655,-0c0.188,-0 0.341,-0.166 0.341,-0.362l-0,-0.468c-0,-0.196 -0.153,-0.348 -0.341,-0.348l-19.701,-0Z" style="fill:#fff;"/><text x="10.126px" y="6.751px" style="font-family:'InkFree', 'Ink Free', cursive;font-size:4.156px;fill:#fff;">Patente</text><text x="10.126px" y="28.314px" style="font-family:'InkFree', 'Ink Free', cursive;font-size:4.156px;fill:#fff;">Ragazzi</text></g></svg>