<?xml version="1.0" encoding="UTF-8" standalone="no"?><!DOCTYPE svg PUBLIC "-//W3C//DTD SVG 1.1//EN" "http://www.w3.org/Graphics/SVG/1.1/DTD/svg11.dtd"><svg width="100%" height="100%" viewBox="0 0 70 70" version="1.1" xmlns="http://www.w3.org/2000/svg" xmlns:xlink="http://www.w3.org/1999/xlink" xml:space="preserve" xmlns:serif="http://www.serif.com/" style="fill-rule:evenodd;clip-rule:evenodd;stroke-linecap:round;stroke-linejoin:round;"><g><circle cx="34.681" cy="34.681" r="34.32" style="fill:#fff;"/><g><circle cx="34.681" cy="34.681" r="33.063" style="fill:none;"/><clipPath id="_clip1"><circle cx="34.681" cy="34.681" r="33.063"/></clipPath><g clip-path="url(#_clip1)"><rect id="rect1873" x="6.389" y="6.389" width="56.584" height="56.584" style="fill:#00408b;"/><path id="rect1907" d="M61.558,11.657c-0,-2.127 -1.727,-3.853 -3.854,-3.853l-46.047,-0c-2.127,-0 -3.853,1.726 -3.853,3.853l-0,46.047c-0,2.127 1.726,3.854 3.853,3.854l46.047,-0c2.127,-0 3.854,-1.727 3.854,-3.854l-0,-46.047Z" style="fill:none;stroke:#fff;stroke-width:0.57px;"/><path id="path2001" d="M22.069,19.747c-1.95,0.166 -3.173,1.414 -3.845,3.162l-3.13,8.299l2.522,-0.174l2.751,-7.272c0.252,-0.612 0.925,-1.209 1.702,-1.296c7.256,-0.994 16.953,-1.049 25.239,-0c0.777,0.087 1.435,0.684 1.687,1.296l2.75,7.272l2.523,0.174l-3.131,-8.299c-0.672,-1.748 -1.899,-2.96 -3.829,-3.162c-7.27,-0.763 -17.169,-0.69 -25.239,-0Zm12.612,10.623c-5.738,0.028 -11.463,0.56 -17.156,1.28c-2.377,0.347 -3.937,0.883 -4.786,2.324c-1.653,2.806 -0.697,7.288 3.327,7.288l37.229,-0c4.024,-0 4.981,-4.482 3.328,-7.288c-0.849,-1.441 -2.41,-1.788 -4.787,-2.134c-5.697,-0.649 -11.416,-1.498 -17.155,-1.47Zm-17.612,3.209c1.647,0 2.979,1.385 2.979,3.099c-0,1.713 -1.332,3.114 -2.979,3.114c-1.646,-0 -2.993,-1.401 -2.993,-3.114c-0,-1.714 1.347,-3.099 2.993,-3.099Zm35.238,0c1.647,0 2.979,1.385 2.979,3.099c-0,1.713 -1.332,3.114 -2.979,3.114c-1.646,-0 -2.993,-1.401 -2.993,-3.114c-0,-1.714 1.347,-3.099 2.993,-3.099Zm-39.568,8.394c-0.419,0 -0.76,0.339 -0.76,0.775l-0,1.043c-0,0.436 0.341,0.806 0.76,0.806l1.458,0l0,4.885c0,0.669 0.528,1.217 1.17,1.217l4.453,0c0.642,0 1.17,-0.548 1.17,-1.217l-0,-4.885l27.397,0l0,4.885c0,0.669 0.512,1.217 1.155,1.217l4.452,0c0.643,0 1.17,-0.548 1.17,-1.217l0,-4.885l1.459,0c0.419,0 0.76,-0.37 0.76,-0.806l-0,-1.043c-0,-0.436 -0.341,-0.775 -0.76,-0.775l-43.884,0Z" style="fill:#fff;"/><rect x="1.618" y="1.618" width="64.315" height="16.852" style="fill:#01408b;"/><rect x="1.618" y="50.891" width="64.315" height="16.852" style="fill:#01408b;"/><path d="M-6.808,3.428l0,64.315l16.852,0l0,-64.315l-16.852,0Z" style="fill:#01408b;"/><path d="M57.507,1.618l0,64.315l16.852,0l0,-64.315l-16.852,0Z" style="fill:#01408b;"/></g><text x="18.491px" y="13.742px" style="font-family:'InkFree', 'Ink Free', cursive;font-size:9px;fill:#fff;">Patente</text><text x="18.491px" y="60.436px" style="font-family:'InkFree', 'Ink Free', cursive;font-size:9px;fill:#fff;">Ragazzi</text></g></g></svg>