<?xml version="1.0" encoding="UTF-8" standalone="no"?>
<!DOCTYPE svg PUBLIC "-//W3C//DTD SVG 1.1//EN" "http://www.w3.org/Graphics/SVG/1.1/DTD/svg11.dtd">
<svg width="100%" height="100%" viewBox="0 0 2134 2134" version="1.1" xmlns="http://www.w3.org/2000/svg" xmlns:xlink="http://www.w3.org/1999/xlink" xml:space="preserve" xmlns:serif="http://www.serif.com/" style="fill-rule:evenodd;clip-rule:evenodd;stroke-linejoin:round;stroke-miterlimit:2;">
    <g transform="matrix(4.16667,0,0,4.16667,0,0)">
        <g opacity="0.46">
            <path d="M347.286,203.876C126.096,128.287 275.24,37.734 350.306,2.023C351.332,1.536 350.983,-0 349.847,-0L296.297,-0C287.828,-0 279.459,1.96 271.715,5.745C186.676,47.311 15.213,148.44 153.735,233.255C312.586,330.516 142.285,457.522 53.16,512L402.638,512C449.374,445.292 546.211,271.856 347.286,203.876Z" style="fill:rgb(102,94,104);fill-rule:nonzero;"/>
            <path d="M53.16,512L129.936,512C221.504,448.882 361.65,323.932 212.805,226.811C88.567,145.747 213.679,50.698 302.154,-0L296.297,-0C287.828,-0 279.459,1.96 271.715,5.745C186.676,47.311 15.213,148.44 153.735,233.255C312.586,330.516 142.285,457.522 53.16,512Z" style="fill:rgb(85,78,86);fill-rule:nonzero;"/>
            <g>
                <path d="M217.804,71.339C215.285,71.339 212.816,70.11 211.331,67.846C208.989,64.275 209.985,59.482 213.557,57.14C216.976,54.898 219.127,53.669 219.216,53.618C222.926,51.503 227.649,52.798 229.762,56.509C231.875,60.218 230.582,64.937 226.875,67.052C226.824,67.081 224.983,68.139 222.037,70.071C220.73,70.929 219.259,71.338 217.804,71.339Z" style="fill:rgb(223,235,250);fill-rule:nonzero;"/>
            </g>
            <g>
                <path d="M291.42,441.935C289.538,441.935 287.652,441.252 286.163,439.871C283.032,436.967 282.849,432.074 285.754,428.944C288.568,425.911 291.313,422.825 293.914,419.771C296.684,416.52 301.564,416.129 304.814,418.899C308.065,421.668 308.456,426.548 305.686,429.799C302.944,433.018 300.052,436.269 297.09,439.462C295.567,441.104 293.496,441.935 291.42,441.935Z" style="fill:rgb(223,235,250);fill-rule:nonzero;"/>
                <path d="M324.191,398.39C322.884,398.39 321.559,398.058 320.345,397.36C316.642,395.232 315.367,390.505 317.495,386.803C319.54,383.244 321.426,379.668 323.098,376.173C324.941,372.321 329.558,370.692 333.41,372.535C337.263,374.378 338.891,378.995 337.048,382.847C335.208,386.692 333.141,390.617 330.901,394.51C329.471,396.997 326.868,398.39 324.191,398.39Z" style="fill:rgb(223,235,250);fill-rule:nonzero;"/>
                <path d="M341.594,347.113C341.389,347.113 341.182,347.105 340.974,347.088C336.717,346.75 333.539,343.026 333.877,338.769C334.043,336.684 334.126,334.59 334.126,332.544C334.127,330.805 334.066,329.054 333.946,327.34C333.647,323.08 336.859,319.385 341.118,319.086C345.368,318.784 349.073,321.998 349.372,326.258C349.517,328.332 349.591,330.447 349.59,332.546C349.59,334.996 349.49,337.502 349.292,339.991C348.972,344.04 345.587,347.113 341.594,347.113Z" style="fill:rgb(223,235,250);fill-rule:nonzero;"/>
                <path d="M328.086,295.326C325.578,295.326 323.117,294.107 321.629,291.858C319.56,288.729 317.2,285.614 314.613,282.599C311.833,279.358 312.206,274.477 315.447,271.696C318.688,268.915 323.569,269.288 326.35,272.53C329.354,276.031 332.105,279.664 334.528,283.327C336.883,286.889 335.906,291.686 332.344,294.042C331.031,294.911 329.55,295.326 328.086,295.326Z" style="fill:rgb(223,235,250);fill-rule:nonzero;"/>
                <path d="M288.565,258.262C287.129,258.262 285.677,257.863 284.382,257.027C281.089,254.903 277.591,252.793 273.986,250.755C270.268,248.654 268.959,243.936 271.06,240.219C273.161,236.501 277.879,235.192 281.596,237.293C285.461,239.478 289.218,241.745 292.762,244.03C296.351,246.345 297.384,251.13 295.07,254.719C293.592,257.012 291.104,258.262 288.565,258.262Z" style="fill:rgb(223,235,250);fill-rule:nonzero;"/>
                <path d="M240.155,233.18C238.979,233.18 237.786,232.911 236.665,232.343C232.747,230.357 228.916,228.324 225.28,226.302C221.548,224.226 220.205,219.518 222.281,215.786C224.357,212.053 229.064,210.709 232.797,212.787C236.261,214.714 239.915,216.652 243.657,218.549C247.466,220.48 248.989,225.133 247.058,228.942C245.696,231.63 242.976,233.18 240.155,233.18Z" style="fill:rgb(223,235,250);fill-rule:nonzero;"/>
                <path d="M194.337,203.784C192.563,203.784 190.781,203.177 189.325,201.937C185.824,198.953 182.549,195.892 179.592,192.84C176.62,189.773 176.698,184.878 179.766,181.907C182.834,178.935 187.728,179.014 190.699,182.081C193.315,184.781 196.228,187.503 199.356,190.169C202.606,192.939 202.996,197.819 200.225,201.069C198.696,202.861 196.523,203.784 194.337,203.784Z" style="fill:rgb(223,235,250);fill-rule:nonzero;"/>
                <path d="M164.402,159.356C160.824,159.356 157.612,156.859 156.844,153.218C155.964,149.046 155.518,144.785 155.518,140.554C155.517,140.007 155.525,139.455 155.54,138.903C155.657,134.634 159.224,131.286 163.481,131.385C167.75,131.502 171.116,135.057 170.999,139.326C170.988,139.732 170.982,140.138 170.983,140.546C170.983,143.714 171.317,146.901 171.976,150.026C172.857,154.204 170.185,158.306 166.006,159.187C165.467,159.302 164.93,159.356 164.402,159.356Z" style="fill:rgb(223,235,250);fill-rule:nonzero;"/>
                <path d="M177.873,108.162C176.301,108.162 174.715,107.684 173.345,106.692C169.886,104.188 169.112,99.353 171.617,95.895C174.141,92.409 176.989,88.904 180.082,85.478C182.942,82.309 187.831,82.056 191.003,84.919C194.173,87.78 194.423,92.669 191.562,95.84C188.84,98.856 186.344,101.926 184.143,104.965C182.631,107.053 180.269,108.162 177.873,108.162Z" style="fill:rgb(223,235,250);fill-rule:nonzero;"/>
            </g>
            <g>
                <path d="M256.006,474.787C253.67,474.787 251.362,473.733 249.841,471.728C247.26,468.326 247.925,463.476 251.327,460.894C251.341,460.883 253.041,459.589 255.896,457.228C259.187,454.506 264.062,454.968 266.782,458.258C269.504,461.549 269.042,466.423 265.752,469.144C262.619,471.736 260.753,473.154 260.675,473.213C259.277,474.274 257.635,474.787 256.006,474.787Z" style="fill:rgb(223,235,250);fill-rule:nonzero;"/>
            </g>
            <path d="M364.982,185.337C154.193,120.191 275.813,46.007 353.857,7.795C357.504,6.01 356.343,-0 352.354,-0L349.454,-0C276.039,34.202 116.639,126.815 342.136,203.876C541.059,271.856 444.223,445.292 397.487,512L437.096,512C447.012,512 456.122,505.987 460.806,496.341C505.71,403.884 547.617,241.782 364.982,185.337Z" style="fill:rgb(255,211,1);fill-rule:nonzero;"/>
            <g>
                <g>
                    <path d="M155.795,233.255C53.382,170.549 118.352,98.925 194.623,49.047C109.297,96.896 11.44,175.539 126.147,245.771C260.498,328.032 119.566,431.568 16.89,494.507C9.262,499.184 12.282,512 21.009,512L55.22,512C144.346,457.522 314.647,330.516 155.795,233.255Z" style="fill:rgb(255,194,12);fill-rule:nonzero;"/>
                </g>
            </g>
        </g>
    </g>
</svg>
