<svg xmlns="http://www.w3.org/2000/svg" width="25.794" height="26.072" viewBox="0 0 25.794 26.072">
  <g id="bar-chart" transform="translate(-2.003 0)">
    <g id="Group_10" data-name="Group 10" transform="translate(2.003 0)">
      <g id="Group_9" data-name="Group 9">
        <path id="Path_4" data-name="Path 4" d="M148.183,218.936H143.39a.726.726,0,0,0-.726.726v9.4a.726.726,0,0,0,.726.726h4.793a.726.726,0,0,0,.726-.726v-9.4A.726.726,0,0,0,148.183,218.936Zm-.726,9.4h-3.34v-7.952h3.34Z" transform="translate(-132.888 -203.72)" fill="#011328"/>
        <path id="Path_5" data-name="Path 5" d="M284.578,136.911h-4.829a.726.726,0,0,0-.726.726v15.1a.726.726,0,0,0,.726.726h4.829a.726.726,0,0,0,.726-.726v-15.1A.726.726,0,0,0,284.578,136.911Zm-.726,15.1h-3.377V138.363h3.377Z" transform="translate(-259.77 -127.396)" fill="#011328"/>
        <path id="Path_6" data-name="Path 6" d="M11.337,269.613H6.508a.726.726,0,0,0-.726.726v5.882a.726.726,0,0,0,.726.726h4.829a.726.726,0,0,0,.726-.726v-5.882A.726.726,0,0,0,11.337,269.613Zm-.726,5.882H7.234v-4.43h3.377Z" transform="translate(-5.519 -250.875)" fill="#011328"/>
        <path id="Path_7" data-name="Path 7" d="M27.61.728a.617.617,0,0,0-.472-.254L20.529,0a.728.728,0,1,0-.109,1.452l4.677.318L16.5,8.5,9.927,3.343a.726.726,0,0,0-.944.036L2.229,9.842a.726.726,0,0,0-.036,1.017.654.654,0,0,0,.545.254.726.726,0,0,0,.508-.218L9.527,4.868l6.5,5.12a.726.726,0,0,0,.908,0l9.3-7.233-.363,4.51a.762.762,0,0,0,.69.762h.036a.726.726,0,0,0,.726-.654l.472-6.136A.581.581,0,0,0,27.61.728Z" transform="translate(-2.003 0)" fill="#011328"/>
      </g>
    </g>
  </g>
</svg>
