<?xml version="1.0" encoding="UTF-8" standalone="no"?><!DOCTYPE svg PUBLIC "-//W3C//DTD SVG 1.1//EN" "http://www.w3.org/Graphics/SVG/1.1/DTD/svg11.dtd"><svg width="100%" height="100%" viewBox="0 0 42 48" version="1.1" xmlns="http://www.w3.org/2000/svg" xmlns:xlink="http://www.w3.org/1999/xlink" xml:space="preserve" xmlns:serif="http://www.serif.com/" style="fill-rule:evenodd;clip-rule:evenodd;stroke-linejoin:round;stroke-miterlimit:2;"><clipPath id="_clip1"><rect id="tiktok.svg" x="0" y="0" width="41.535" height="47.469"/></clipPath><g clip-path="url(#_clip1)"><path d="M41.535,19.461c-4.081,0.01 -8.064,-1.263 -11.382,-3.639l-0,16.57c-0.003,8.265 -6.805,15.065 -15.071,15.065c-8.267,-0 -15.07,-6.803 -15.07,-15.071c0,-8.267 6.803,-15.07 15.07,-15.07c0.693,-0 1.384,0.048 2.07,0.143l-0,8.334c-0.672,-0.212 -1.372,-0.319 -2.076,-0.319c-3.795,-0 -6.918,3.123 -6.918,6.918c-0,3.795 3.123,6.918 6.918,6.918c3.795,0 6.918,-3.123 6.918,-6.918l0,-32.392l8.159,0c-0.006,0.689 0.052,1.377 0.172,2.055c0.573,3.06 2.382,5.752 4.998,7.438c1.843,1.218 4.003,1.868 6.212,1.867l0,8.101Z" style="fill:#fff;fill-rule:nonzero;stroke:#fff;stroke-width:0.09px;"/></g></svg>